HIERARCHY
ROOT Hips
{
	OFFSET -0.001795 -0.223333 0.028219
	CHANNELS 6 Xposition Yposition Zposition Zrotation Yrotation Xrotation 
	JOINT LeftUpLeg
	{
		OFFSET 0.069520 -0.091406 -0.006815
		CHANNELS 3 Zrotation Yrotation Xrotation
		JOINT LeftLeg
		{
			OFFSET 0.034277 -0.375199 -0.004496
			CHANNELS 3 Zrotation Yrotation Xrotation
			JOINT LeftFoot
			{
				OFFSET -0.013596 -0.397961 -0.043693
				CHANNELS 3 Zrotation Yrotation Xrotation
				JOINT LeftToe
				{
					OFFSET 0.026358 -0.055791 0.119288
					CHANNELS 3 Zrotation Yrotation Xrotation
					End Site
					{
						OFFSET 0.000000 0.000000 0.000000
					}
				}
			}
		}
	}
	JOINT RightUpLeg
	{
		OFFSET -0.067670 -0.090522 -0.004320
		CHANNELS 3 Zrotation Yrotation Xrotation
		JOINT RightLeg
		{
			OFFSET -0.038290 -0.382569 -0.008850
			CHANNELS 3 Zrotation Yrotation Xrotation
			JOINT RightFoot
			{
				OFFSET 0.015774 -0.398415 -0.042312
				CHANNELS 3 Zrotation Yrotation Xrotation
				JOINT RightToe
				{
					OFFSET -0.025372 -0.048144 0.123348
					CHANNELS 3 Zrotation Yrotation Xrotation
					End Site
					{
						OFFSET 0.000000 0.000000 0.000000
					}
				}
			}
		}
	}
	JOINT Spine
	{
		OFFSET -0.002533 0.108963 -0.026696
		CHANNELS 3 Zrotation Yrotation Xrotation
		JOINT Spine1
		{
			OFFSET 0.005487 0.135180 0.001092
			CHANNELS 3 Zrotation Yrotation Xrotation
			JOINT Spine2
			{
				OFFSET 0.001457 0.052922 0.025425
				CHANNELS 3 Zrotation Yrotation Xrotation
				JOINT Neck
				{
					OFFSET -0.002778 0.213870 -0.042857
					CHANNELS 3 Zrotation Yrotation Xrotation
					JOINT Head
					{
						OFFSET 0.005152 0.064970 0.051349
						CHANNELS 3 Zrotation Yrotation Xrotation
						End Site
						{
							OFFSET 0.000000 0.000000 0.000000
						}
					}
				}
				JOINT LeftShoulder
				{
					OFFSET 0.078845 0.121749 -0.034090
					CHANNELS 3 Zrotation Yrotation Xrotation
					JOINT LeftArm
					{
						OFFSET 0.090977 0.030469 -0.008868
						CHANNELS 3 Zrotation Yrotation Xrotation
						JOINT LeftForeArm
						{
							OFFSET 0.259612 -0.012772 -0.027456
							CHANNELS 3 Zrotation Yrotation Xrotation
							JOINT LeftHand
							{
								OFFSET 0.249234 0.008986 -0.001171
								CHANNELS 3 Zrotation Yrotation Xrotation
								End Site
								{
									OFFSET 0.000000 0.000000 0.000000
								}
							}
						}
					}
				}
				JOINT RightShoulder
				{
					OFFSET -0.081759 0.118833 -0.038615
					CHANNELS 3 Zrotation Yrotation Xrotation
					JOINT RightArm
					{
						OFFSET -0.096012 0.032551 -0.009143
						CHANNELS 3 Zrotation Yrotation Xrotation
						JOINT RightForeArm
						{
							OFFSET -0.253742 -0.013329 -0.021401
							CHANNELS 3 Zrotation Yrotation Xrotation
							JOINT RightHand
							{
								OFFSET -0.255298 0.007772 -0.005559
								CHANNELS 3 Zrotation Yrotation Xrotation
								End Site
								{
									OFFSET 0.000000 0.000000 0.000000
								}
							}
						}
					}
				}
			}
		}
	}
}
MOTION
Frames: 13
Frame Time: 0.050000
0.000000 0.893770 0.000000 -7.099709 -11.513357 10.453872 22.923939 4.679506 -28.672243 -12.803120 5.098378 26.740169 68.602910 55.261748 61.536759 0.000000 0.000000 0.000000 -13.893345 1.054786 -20.195184 7.261379 -0.514862 20.711373 -1.570906 -9.409424 12.073418 0.000000 0.000000 0.000000 -2.066145 0.613215 35.701733 -5.727181 1.630541 -27.173393 -2.689332 5.515815 23.257628 13.568513 -4.382835 -34.235885 0.000000 0.000000 0.000000 -19.440041 -30.564478 16.131273 -37.511569 -31.829958 3.444904 2.021475 -31.836473 0.789364 0.000000 0.000000 0.000000 31.223951 16.592413 9.298120 45.483011 28.863388 4.375203 0.498394 39.179164 2.079221 0.000000 0.000000 0.000000 
0.006544 0.892371 -0.001488 -7.989841 -11.841563 11.427544 23.971626 5.502289 -30.739227 -13.600710 5.769702 28.611595 69.302012 55.346475 62.079517 0.000000 0.000000 0.000000 -13.963598 1.125239 -21.022680 7.975914 -0.687331 19.323608 -1.236026 -9.581615 14.234073 0.000000 0.000000 0.000000 -2.809353 0.962134 35.969822 -5.140468 1.501754 -27.491261 -3.248651 4.958221 23.824430 15.902422 -4.999751 -36.906449 0.000000 0.000000 0.000000 -20.695532 -30.065931 16.495925 -35.121412 -30.899500 2.643396 2.746918 -33.880527 0.661345 0.000000 0.000000 0.000000 31.563404 15.866394 8.516265 45.619433 28.790550 4.377178 0.835435 40.928362 2.322766 0.000000 0.000000 0.000000 
0.013842 0.888661 -0.002706 -7.651218 -10.604239 11.598383 23.343838 5.406680 -32.603777 -13.760109 5.986981 30.540634 68.154106 55.757354 59.904733 0.000000 0.000000 0.000000 -14.680223 0.986846 -21.377445 8.676691 -0.936454 19.445822 -3.022781 -12.743557 14.934820 0.000000 0.000000 0.000000 -2.273974 0.583362 35.718094 -4.715546 1.422187 -25.930283 -3.993408 5.260123 22.523557 16.476934 -5.823809 -33.550154 0.000000 0.000000 0.000000 -20.622201 -31.567537 17.014977 -33.092468 -31.505531 2.646727 1.498721 -34.060398 0.971294 0.000000 0.000000 0.000000 31.847086 16.503347 9.471736 43.503787 29.865552 4.368836 -0.105458 39.410578 1.915626 0.000000 0.000000 0.000000 
0.021737 0.887783 -0.003703 -7.740145 -11.072495 11.945638 23.425466 5.858742 -34.241276 -14.177490 6.648518 32.931610 67.951223 55.611293 59.873533 0.000000 0.000000 0.000000 -15.746526 0.943810 -22.190636 8.784960 -0.943596 18.845940 -1.589766 -11.117323 17.858880 0.000000 0.000000 0.000000 -2.322549 0.693923 36.125180 -5.968356 1.673554 -26.425090 -3.667681 4.172144 22.673678 16.790173 -6.087979 -33.737247 0.000000 0.000000 0.000000 -21.309624 -31.465362 17.564067 -32.015471 -31.411905 2.387988 2.745858 -34.502443 0.616245 0.000000 0.000000 0.000000 31.899568 16.285803 8.697540 42.175271 28.954099 3.967936 1.607855 41.324388 2.529133 0.000000 0.000000 0.000000 
0.030336 0.888118 -0.003969 -7.577981 -10.970905 11.880708 22.939367 5.802241 -34.902059 -14.011038 6.776709 34.193413 67.102473 55.522211 59.028529 0.000000 0.000000 0.000000 -16.145661 0.896085 -22.578061 8.825545 -0.962994 19.494647 -2.314541 -12.453650 18.601727 0.000000 0.000000 0.000000 -2.933788 0.930621 36.380108 -5.037519 1.479244 -26.292174 -3.945610 4.499761 22.674376 17.756781 -6.715982 -32.917146 0.000000 0.000000 0.000000 -21.445767 -31.193602 17.303056 -31.344997 -31.545926 2.312268 3.835805 -35.904302 0.299233 0.000000 0.000000 0.000000 32.168765 16.224599 8.885120 40.597702 29.064324 3.666216 1.685381 41.393312 2.565334 0.000000 0.000000 0.000000 
0.039705 0.889914 -0.003519 -7.573344 -10.570830 12.130105 22.202417 5.459410 -35.078720 -13.816846 6.709223 34.618771 65.989827 55.967618 56.929908 0.000000 0.000000 0.000000 -16.454102 0.840927 -22.065657 8.933541 -1.014108 18.358812 -3.022401 -13.656177 19.311907 0.000000 0.000000 0.000000 -2.820743 0.868358 36.869190 -5.217675 1.514191 -27.397086 -3.401726 3.852351 23.278776 18.980873 -7.553839 -32.528771 0.000000 0.000000 0.000000 -23.125127 -31.238383 18.014269 -29.290187 -30.598197 1.679923 4.004627 -36.670882 0.234274 0.000000 0.000000 0.000000 32.328897 16.233069 8.691898 39.307190 27.834152 3.075469 2.640889 42.442039 2.934165 0.000000 0.000000 0.000000 
0.049934 0.891761 -0.002031 -7.582273 -10.289800 12.135092 21.768239 5.378702 -35.804050 -13.626611 6.732427 35.577698 65.620387 55.816998 56.731955 0.000000 0.000000 0.000000 -16.590682 0.805149 -21.925466 8.794237 -0.994682 17.447235 -4.186367 -15.887421 22.322718 0.000000 0.000000 0.000000 -2.587928 0.726490 36.618951 -5.054635 1.483412 -27.268530 -3.225631 3.990208 23.089903 18.577416 -7.553162 -31.683838 0.000000 0.000000 0.000000 -23.402845 -30.335560 17.453292 -29.642059 -30.356093 1.668020 3.930543 -37.835358 0.292596 0.000000 0.000000 0.000000 33.076359 15.773017 8.533072 38.169766 27.242010 2.698916 2.753650 42.015213 2.930314 0.000000 0.000000 0.000000 
0.061258 0.893372 0.000110 -7.676227 -10.133108 11.981656 21.170921 5.238180 -36.412344 -13.779979 6.927529 36.457809 66.489991 56.144969 57.087607 0.000000 0.000000 0.000000 -16.639763 0.787508 -21.086845 8.070031 -0.839399 15.733442 -4.563829 -16.766386 25.210837 0.000000 0.000000 0.000000 -2.715063 0.734499 36.367834 -4.845939 1.440342 -27.276873 -2.388527 4.248729 23.071622 18.866939 -8.007936 -30.520021 0.000000 0.000000 0.000000 -23.543152 -30.156176 17.284874 -29.870357 -29.485192 1.503064 4.218514 -39.046110 0.206003 0.000000 0.000000 0.000000 33.463231 15.460544 8.467019 37.433419 26.448222 2.330415 2.461380 41.428856 2.760831 0.000000 0.000000 0.000000 
0.073711 0.894616 0.002795 -7.893546 -10.167246 11.857918 20.966821 5.171502 -36.385302 -14.225034 7.253729 36.962425 66.879644 56.592159 56.690257 0.000000 0.000000 0.000000 -16.751549 0.782980 -20.547112 7.301727 -0.681076 14.261765 -4.588913 -17.188460 28.768568 0.000000 0.000000 0.000000 -2.807092 0.763524 36.235839 -4.442461 1.358645 -27.641446 -1.857054 4.868447 23.264893 18.855594 -8.127211 -29.851080 0.000000 0.000000 0.000000 -22.878805 -29.539790 16.539618 -31.147943 -29.192890 1.612721 4.365699 -39.322937 0.169929 0.000000 0.000000 0.000000 33.840770 15.006662 8.435159 36.830783 25.949724 2.021676 1.873023 40.182120 2.468563 0.000000 0.000000 0.000000 
0.086807 0.894907 0.005557 -7.975993 -9.850031 11.607939 20.096131 4.840459 -36.698553 -14.116718 7.301561 37.858136 67.332703 57.107597 56.233824 0.000000 0.000000 0.000000 -17.151630 0.724561 -19.957736 6.531422 -0.552692 12.931583 -4.210463 -16.832423 30.470489 0.000000 0.000000 0.000000 -2.754318 0.664468 35.606042 -4.388832 1.353375 -27.386635 -1.181277 5.206442 23.494380 18.957596 -8.238894 -29.555946 0.000000 0.000000 0.000000 -22.251036 -29.107000 15.965897 -32.123776 -28.955430 1.690197 4.200705 -39.787945 0.234078 0.000000 0.000000 0.000000 33.098997 14.629254 8.288630 37.357913 26.017588 2.042341 0.934522 39.378835 2.111665 0.000000 0.000000 0.000000 
0.099754 0.894878 0.008335 -8.317931 -10.067265 11.409234 19.678494 4.712211 -36.490930 -13.860087 7.318308 38.428912 67.639875 57.405597 56.042328 0.000000 0.000000 0.000000 -17.508075 0.716420 -19.560813 5.844176 -0.428972 11.989835 -3.082827 -15.497559 30.687497 0.000000 0.000000 0.000000 -2.746076 0.667532 35.318569 -4.231517 1.318924 -27.728990 -0.624211 6.187790 23.822669 19.703514 -8.633482 -29.314246 0.000000 0.000000 0.000000 -21.597744 -28.890659 15.413601 -33.372229 -28.058836 1.645291 4.277986 -39.879270 0.190873 0.000000 0.000000 0.000000 32.921160 14.242828 8.375463 37.742884 26.480836 2.106445 -0.136670 37.900925 1.714168 0.000000 0.000000 0.000000 
0.111312 0.894317 0.010644 -8.643557 -9.904684 11.088393 19.148244 4.490537 -36.463035 -13.631583 7.225035 38.768865 68.657560 57.842814 56.388997 0.000000 0.000000 0.000000 -17.850292 0.677995 -19.055471 5.479652 -0.375549 11.564938 -2.513622 -14.651258 29.951351 0.000000 0.000000 0.000000 -2.747855 0.624326 35.024118 -4.445570 1.363331 -27.885072 -0.015146 6.730686 23.942338 19.682766 -8.608953 -29.182507 0.000000 0.000000 0.000000 -21.247282 -28.788155 15.066880 -33.924472 -27.403399 1.576917 4.321537 -39.501388 0.135793 0.000000 0.000000 0.000000 32.590095 13.933375 8.398863 38.741248 26.306004 2.102808 -1.074082 37.390548 1.437811 0.000000 0.000000 0.000000 
0.120966 0.894045 0.012316 -9.074078 -9.619506 10.730179 18.945097 4.315627 -36.120010 -13.341751 7.073894 39.085607 68.454248 58.154581 55.580410 0.000000 0.000000 0.000000 -17.620451 0.658912 -18.985477 5.110338 -0.316900 11.599103 -2.171689 -13.958111 28.515378 0.000000 0.000000 0.000000 -2.690290 0.543164 34.709494 -4.310682 1.343402 -27.735789 0.464598 7.497986 23.913391 19.890934 -8.540979 -29.421145 0.000000 0.000000 0.000000 -20.787657 -28.592447 14.565718 -34.732203 -26.747775 1.548193 4.693858 -39.159583 -0.029680 0.000000 0.000000 0.000000 32.160419 13.547970 8.466717 39.634470 26.402438 2.165150 -1.233661 37.728034 1.468367 0.000000 0.000000 0.000000 
